PathFileType	4	(X/Y/Z)	 s08c0101.trc
DataRate	CameraRate	NumFrames	NumMarkers	Units	OrigDataRate	OrigDataStartFrame	OrigNumFrames
200	200	4	50	mm	200	1501	2000
Frame#	Time	racr			lacr			c7			jug			rlel			rdr			llel			ldr			s2			lic			ric			lasi			rasi			rpsi			lpsi			rgt			lgt			rth1			rth2			rth3			rth4			rlfc			rmfc			rsh1			rsh2			rsh3			rsh4			rlmal			rmmal			rcal			rtoe			rmt5			lth1			lth2			lth4			lth3			llfc			lmfc			llmal			lmmal			lcal			lmt5			lsh1			lsh2			lsh3			lsh4			ltoe			SBIKE			LBIKE			RBIKE			
		X1	Y1	Z1	X2	Y2	Z2	X3	Y3	Z3	X4	Y4	Z4	X5	Y5	Z5	X6	Y6	Z6	X7	Y7	Z7	X8	Y8	Z8	X9	Y9	Z9	X10	Y10	Z10	X11	Y11	Z11	X12	Y12	Z12	X13	Y13	Z13	X14	Y14	Z14	X15	Y15	Z15	X16	Y16	Z16	X17	Y17	Z17	X18	Y18	Z18	X19	Y19	Z19	X20	Y20	Z20	X21	Y21	Z21	X22	Y22	Z22	X23	Y23	Z23	X24	Y24	Z24	X25	Y25	Z25	X26	Y26	Z26	X27	Y27	Z27	X28	Y28	Z28	X29	Y29	Z29	X30	Y30	Z30	X31	Y31	Z31	X32	Y32	Z32	X33	Y33	Z33	X34	Y34	Z34	X35	Y35	Z35	X36	Y36	Z36	X37	Y37	Z37	X38	Y38	Z38	X39	Y39	Z39	X40	Y40	Z40	X41	Y41	Z41	X42	Y42	Z42	X43	Y43	Z43	X44	Y44	Z44	X45	Y45	Z45	X46	Y46	Z46	X47	Y47	Z47	X48	Y48	Z48	X49	Y49	Z49	X50	Y50	Z50	
1501	7.5050	579.539473	1350.130553	-66.803730	595.377858	1326.555290	-387.498639	564.337718	1403.573953	-232.553194	509.874250	1253.418363	-216.351339	581.209390	1100.252152	52.578950	787.661857	898.871747	-35.033417	597.514198	1068.846927	-512.485458	803.812898	897.782251	-418.270986	1.644876	1203.200017	-238.679388	160.073609	1194.926671	-385.865271	157.306960	1211.706908	-68.872704	183.528975	1153.273297	-342.376410	191.310723	1160.174823	-102.860385	35.820423	1244.434561	-187.971714	33.677605	1246.813497	-283.851172	89.030648	1095.303276	-44.266140	121.184701	1084.745429	-418.876395	202.108694	960.378776	-30.988442	273.123138	906.736892	-31.747804	307.260343	827.231306	-42.458601	302.390272	930.180081	-36.247338	382.323890	732.349450	-55.553682	370.290342	716.754311	-161.431184	342.817599	605.319296	-24.176060	362.511007	519.126109	-40.043914	336.878376	436.802842	-46.578342	392.256490	522.037329	-68.118845	323.421299	318.061080	-52.865707	339.583664	339.959357	-140.768160	247.181341	286.256350	-100.326713	540.486310	287.283208	-101.246458	456.636534	248.348825	-31.164524	223.279017	1002.141302	-415.681756	304.285055	970.780044	-406.325812	323.588436	997.758800	-390.501885	360.325713	901.360449	-404.618600	427.397836	799.536958	-379.711579	421.930562	768.629275	-272.742084	116.898442	526.812415	-392.242949	150.971118	518.248157	-308.440320	55.768721	550.298292	-352.154526	163.436472	366.598856	-415.549120	341.283267	710.702921	-403.668502	290.844354	642.581850	-389.992696	211.885873	603.260395	-393.496188	307.380325	627.076419	-357.494894	243.013149	330.457056	-347.547737	-134.918138	947.423875	-223.971981	26.300730	83.960781	-427.789901	18.182448	80.381675	-30.438560	
1502	7.5100	581.052849	1351.549073	-68.253138	594.822270	1327.161539	-389.265030	564.920057	1404.210172	-234.666464	510.524335	1254.155553	-217.330397	584.505664	1102.336162	51.686811	789.146488	898.490372	-35.527778	597.365069	1068.998657	-513.097270	804.117860	897.919989	-418.056681	2.494007	1203.217532	-235.221840	159.580291	1196.224599	-384.427395	159.726540	1211.404956	-67.151876	183.987430	1154.839749	-340.430389	192.801766	1158.693200	-100.840639	37.288443	1244.262973	-184.676466	34.245628	1247.271129	-280.701446	90.640173	1092.788977	-42.951140	122.413843	1086.850237	-417.440720	200.956183	955.823399	-29.959717	270.485183	900.491959	-30.794644	302.778342	820.106290	-42.435143	300.384851	923.037273	-35.661452	375.085164	724.309279	-55.628117	359.279974	709.003433	-163.661710	336.713148	597.295023	-23.825200	357.007355	511.187493	-39.733828	332.092808	428.647328	-46.199637	386.701496	514.202635	-67.748993	319.942422	309.810021	-52.300718	336.020602	331.399137	-140.443097	243.656780	278.975620	-99.882380	536.998246	276.029624	-101.570373	452.816427	238.266392	-31.281911	225.117888	1006.225230	-414.094304	306.743202	976.199768	-405.118089	325.889945	1003.965306	-390.437335	364.137019	908.000133	-403.878553	432.792180	807.368855	-379.344450	427.565856	776.198270	-272.153458	120.962615	536.501699	-391.843332	154.214736	527.886978	-308.351335	59.331624	559.833317	-352.003265	168.195447	376.829473	-415.334803	346.597546	719.060210	-403.202631	295.656152	651.452413	-389.652093	216.380568	612.612536	-393.024159	312.126908	635.587199	-357.151851	247.722525	341.174155	-347.295423	-134.797134	947.477680	-223.651758	26.332995	83.901363	-427.835942	18.253093	80.373382	-30.407652	
1503	7.5150	582.399576	1353.898466	-70.327725	594.177786	1327.886116	-390.944801	565.529433	1404.948622	-236.813009	511.158621	1255.080588	-217.850882	588.088046	1104.449305	50.637166	790.030748	897.357940	-35.244980	597.331315	1069.284246	-513.418510	804.494167	898.163265	-417.695921	3.325029	1203.598724	-231.737179	158.708791	1197.768086	-382.493133	162.113234	1211.524849	-65.517634	184.314187	1156.758555	-338.593920	194.312487	1157.560358	-99.036187	38.743226	1244.652815	-181.206427	34.639058	1248.047250	-277.348982	92.168590	1090.816895	-41.683238	123.533875	1089.620738	-416.035576	199.311625	951.843894	-29.050135	267.382439	894.472962	-30.551987	297.207917	813.387435	-42.364190	297.771038	916.401334	-35.095455	369.239900	717.130130	-54.187701	350.854923	701.371248	-163.473690	330.103409	589.745755	-23.470467	351.154918	503.749109	-39.234100	326.941923	421.061323	-45.823326	380.738919	507.137454	-67.413477	315.912535	301.931082	-51.757410	331.844134	323.358343	-140.056950	239.644299	272.277582	-99.332720	532.946839	265.141928	-101.945925	448.416586	228.632033	-31.391743	226.698104	1010.666199	-413.053163	309.053027	982.195618	-404.655683	328.002298	1010.342632	-390.432745	367.574133	914.927290	-403.268949	437.986640	815.573460	-378.998770	430.422974	785.075476	-271.373468	125.159446	545.958936	-391.529617	158.529003	537.591405	-308.152820	62.805652	568.994138	-351.858594	173.315622	386.713610	-415.074652	351.700377	727.793302	-402.936982	300.386423	660.342621	-389.339475	220.897125	621.878341	-392.624360	316.785185	644.142081	-356.805098	252.993552	351.899906	-347.040534	-134.703718	947.545284	-223.362349	26.411837	83.972449	-427.780536	18.327991	80.384468	-30.350244	
1504	7.5200	584.109686	1355.708096	-72.154297	593.634332	1329.004597	-392.749752	566.130534	1405.942975	-238.956871	512.077447	1256.101054	-218.902197	591.553004	1106.783740	49.680271	791.182265	896.772543	-35.140326	597.292020	1069.553477	-512.778861	804.996404	898.527861	-417.346308	3.836488	1204.691616	-228.811879	157.907787	1199.897591	-381.105446	164.632617	1211.866056	-64.007092	184.534661	1158.946372	-337.016382	195.684953	1157.095705	-97.585595	40.127677	1245.192295	-177.791422	34.956827	1249.118561	-274.056380	93.556155	1089.428312	-40.434972	124.259419	1093.097194	-414.763272	196.897800	948.504075	-28.432773	263.580992	889.312922	-30.113014	291.381001	807.287465	-42.242971	294.998476	910.389232	-34.552457	360.898747	710.152207	-54.436744	345.668942	693.233571	-160.381174	323.033076	582.644371	-23.066459	344.799033	496.903059	-38.795778	321.373458	413.988557	-45.328090	374.784359	500.535572	-67.354573	311.402040	294.703737	-51.120228	327.235179	315.779174	-139.559198	235.152997	266.127834	-98.724237	528.304960	254.758938	-102.260793	443.534141	219.249370	-31.414955	228.133646	1015.538805	-412.043258	311.048775	988.483890	-404.252459	329.644390	1016.930648	-389.967135	370.666038	922.161034	-402.984936	442.555441	823.892944	-378.206492	435.966244	793.608606	-273.524370	129.523670	554.927196	-391.111040	163.143923	546.893651	-307.944468	66.452957	577.611330	-351.627124	179.060116	396.455644	-414.897810	356.553413	736.587774	-402.576929	304.543462	669.074569	-388.351012	225.294944	631.230540	-392.235507	321.504401	652.770481	-356.771575	258.968098	362.496126	-346.739434	-134.617562	947.606327	-223.086059	26.493707	84.066887	-427.738769	18.411382	80.412244	-30.276120	
